<?xml version="1.0" encoding="iso-8859-1"?>
<!-- Uploaded to: SVG Repo, www.svgrepo.com, Generator: SVG Repo Mixer Tools -->
<svg height="800px" width="800px" version="1.1" id="Layer_1" xmlns="http://www.w3.org/2000/svg" xmlns:xlink="http://www.w3.org/1999/xlink" 
	 viewBox="0 0 511.999 511.999" xml:space="preserve">
<path style="fill:#ACABB1;" d="M411.151,7.753c-31.163,0-59.063,14.212-77.577,36.489C315.06,21.965,287.161,7.754,255.999,7.753
	c-0.002,0-0.003,0-0.005,0c-55.609,0-100.85,45.241-100.85,100.85v62.062v93.093v54.655c2.492-0.222,5.072-0.349,7.765-0.349
	c0.037,0,0.074,0.005,0.112,0.006c16.24,0.02,28.693,4.278,38.669,10.11v-41.148h54.309h54.299v41.148
	c10.001-5.846,22.49-10.115,38.787-10.116c0.036,0,0.073,0.005,0.109,0.005c2.652,0.003,5.195,0.129,7.651,0.346v-54.656v-93.093
	v-62.062c0-29.943,24.361-54.304,54.304-54.304c29.943,0,54.304,24.361,54.304,54.304c0,12.853,10.42,23.273,23.273,23.273
	c12.853,0,23.273-10.42,23.273-23.273C512.001,52.993,466.758,7.753,411.151,7.753z M310.3,240.484h-54.299h-54.309v-46.546h54.309
	H310.3L310.3,240.484L310.3,240.484z M310.3,147.392h-54.299h-54.309v-38.789c0-29.943,24.361-54.304,54.304-54.304
	c0.002,0,0.003,0,0.005,0c29.94,0.003,54.299,24.362,54.299,54.304L310.3,147.392L310.3,147.392z"/>
<g>
	<path style="fill:#B3D8F4;" d="M472.261,441.249c-11.404,11.407-16.996,16.451-30.075,16.451c-0.006,0-0.006,0-0.016,0
		c-13.075,0-18.671-5.046-30.081-16.453c-12.685-12.684-30.052-30.049-62.895-30.086c-0.036,0-0.073-0.005-0.109-0.005
		c-32.914,0.002-50.306,17.393-63.004,30.092c-11.409,11.408-17.002,16.453-30.081,16.453h-0.002c-0.003,0-0.005,0-0.011,0
		c-13.075,0-18.67-5.046-30.08-16.453c-12.682-12.682-30.049-30.046-62.887-30.086c-0.037,0-0.074-0.006-0.112-0.006
		c-32.914,0.002-50.306,17.393-63.002,30.092c-11.41,11.408-17.005,16.453-30.088,16.453c-0.009,0-0.009,0-0.014,0
		c-13.07,0-18.667-5.046-30.077-16.453l-0.006-0.006c-9.089-9.087-23.822-9.084-32.91,0.005c-9.087,9.089-9.084,23.827,0.005,32.916
		c12.699,12.696,30.086,30.083,62.982,30.083c0.011,0,0.02,0,0.026,0c32.907,0,50.296-17.39,62.994-30.086
		c11.396-11.396,16.996-16.442,30.039-16.457c0.017,0,0.033,0.002,0.048,0.002c13.083,0,18.677,5.046,30.089,16.456
		c12.699,12.698,30.084,30.086,62.988,30.086c0.009,0,0.011,0,0.016,0c0.002,0,0.005,0,0.006,0c32.905,0,50.293-17.39,62.991-30.086
		c11.398-11.398,16.996-16.443,30.044-16.457c0.017,0,0.033,0.002,0.05,0.002c13.081,0,18.676,5.046,30.088,16.456
		c12.699,12.698,30.086,30.086,62.99,30.086c0.005,0,0.017,0,0.026,0c32.905,0,50.292-17.39,62.988-30.089
		c9.086-9.089,9.084-23.826-0.005-32.913C496.085,432.157,481.353,432.159,472.261,441.249z"/>
	<path style="fill:#B3D8F4;" d="M69.802,411.154c0.011,0,0.02,0,0.026,0c32.907,0,50.296-17.39,62.994-30.086
		c11.396-11.396,16.996-16.442,30.039-16.457c0.017,0,0.033,0.002,0.048,0.002c13.083,0,18.677,5.046,30.089,16.456
		c12.699,12.698,30.084,30.086,62.988,30.086c0.009,0,0.011,0,0.016,0c0.002,0,0.005,0,0.006,0c32.905,0,50.293-17.39,62.991-30.086
		c11.398-11.398,16.996-16.443,30.044-16.457c0.017,0,0.033,0.002,0.05,0.002c13.081,0,18.676,5.046,30.088,16.456
		c12.699,12.698,30.086,30.086,62.99,30.086c0.005,0,0.017,0,0.026,0c32.905,0,50.292-17.39,62.988-30.089
		c9.086-9.089,9.084-23.826-0.005-32.913c-9.091-9.087-23.822-9.086-32.914,0.005c-11.404,11.407-16.996,16.451-30.075,16.451
		c-0.006,0-0.006,0-0.016,0c-13.075,0-18.671-5.046-30.081-16.453c-11.661-11.66-27.287-27.265-55.244-29.74
		c-2.456-0.217-4.999-0.343-7.651-0.346c-0.036,0-0.073-0.005-0.109-0.005c-16.297,0-28.786,4.268-38.787,10.116
		c-10.195,5.963-17.807,13.567-24.216,19.976c-11.409,11.409-17.002,16.453-30.081,16.453h-0.002c-0.003,0-0.005,0-0.011,0
		c-13.075,0-18.67-5.046-30.08-16.453c-6.411-6.411-14.021-14.015-24.218-19.976c-9.976-5.832-22.429-10.09-38.669-10.11
		c-0.037,0-0.074-0.006-0.112-0.006c-2.693,0-5.272,0.127-7.765,0.349c-27.954,2.479-43.58,18.083-55.238,29.743
		c-11.41,11.409-17.005,16.453-30.088,16.453c-0.009,0-0.009,0-0.014,0c-13.07,0-18.667-5.046-30.077-16.453l-0.006-0.006
		c-9.089-9.087-23.822-9.083-32.91,0.005c-9.087,9.089-9.084,23.827,0.005,32.916C19.518,393.767,36.906,411.154,69.802,411.154z"/>
</g>
<g>
	<path style="fill:#78B9EB;" d="M225.91,441.248c-12.682-12.682-30.049-30.046-62.887-30.086c-0.037,0-0.074-0.006-0.112-0.006
		c-32.914,0.002-50.306,17.393-63.002,30.092C88.499,452.656,82.905,457.7,69.822,457.7c-0.009,0-0.009,0-0.014,0
		c-13.07,0-18.667-5.046-30.077-16.453l-0.006-0.006c-9.089-9.087-23.822-9.084-32.91,0.005c-9.087,9.089-9.084,23.827,0.005,32.916
		c12.699,12.696,30.086,30.083,62.982,30.083c0.011,0,0.02,0,0.026,0c32.907,0,50.296-17.39,62.994-30.086
		c11.396-11.396,16.996-16.442,30.039-16.457c0.017,0,0.033,0.002,0.048,0.002c13.083,0,18.677,5.046,30.089,16.456
		c12.699,12.698,30.084,30.086,62.988,30.086c0.009,0,0.011,0,0.016,0v-46.546c-0.003,0-0.005,0-0.011,0
		C242.915,457.7,237.319,452.655,225.91,441.248z"/>
	<path style="fill:#78B9EB;" d="M255.99,364.608c-13.075,0-18.67-5.046-30.08-16.453c-6.411-6.411-14.021-14.015-24.218-19.976
		c-9.976-5.832-22.429-10.09-38.669-10.11c-0.037,0-0.074-0.006-0.112-0.006c-2.693,0-5.272,0.127-7.765,0.349
		c-27.954,2.479-43.58,18.083-55.238,29.743c-11.41,11.409-17.005,16.453-30.088,16.453c-0.009,0-0.009,0-0.014,0
		c-13.07,0-18.667-5.046-30.077-16.453l-0.006-0.006c-9.089-9.087-23.822-9.083-32.91,0.005c-9.087,9.089-9.084,23.827,0.005,32.916
		c12.699,12.696,30.086,30.083,62.982,30.083c0.011,0,0.02,0,0.026,0c32.907,0,50.296-17.39,62.994-30.086
		c11.396-11.396,16.996-16.442,30.039-16.457c0.017,0,0.033,0.002,0.048,0.002c13.083,0,18.677,5.046,30.089,16.456
		c12.699,12.698,30.084,30.086,62.988,30.086c0.009,0,0.011,0,0.016,0v-46.546C255.998,364.608,255.995,364.608,255.99,364.608z"/>
</g>
<path style="fill:#898890;" d="M155.146,108.603v62.062v93.093v54.655c2.492-0.222,5.072-0.349,7.765-0.349
	c0.037,0,0.074,0.005,0.112,0.006c16.24,0.02,28.693,4.278,38.669,10.11v-41.148h54.309v-46.546h-54.309v-46.546h54.309v-46.546
	h-54.309v-38.789c0-29.943,24.361-54.304,54.304-54.304c0.002,0,0.003,0,0.005,0V7.753c-0.002,0-0.003,0-0.005,0
	C200.387,7.753,155.146,52.993,155.146,108.603z"/>
</svg>